<mxfile host="Electron" modified="2024-08-19T19:28:40.776Z" agent="Mozilla/5.0 (Windows NT 10.0; Win64; x64) AppleWebKit/537.36 (KHTML, like Gecko) draw.io/22.1.16 Chrome/120.0.6099.109 Electron/28.1.0 Safari/537.36" etag="GD99A7BgUOGByQ-hkSsr" version="22.1.16" type="device">
  <diagram name="Page-1" id="vx8WYl8dMyhK_g289YRw">
    <mxGraphModel dx="523" dy="788" grid="1" gridSize="10" guides="1" tooltips="1" connect="1" arrows="1" fold="1" page="1" pageScale="1" pageWidth="800" pageHeight="340" math="0" shadow="0">
      <root>
        <mxCell id="0" />
        <mxCell id="1" parent="0" />
        <mxCell id="JjXKmkML70HqsHR7HFJs-4" value="" style="whiteSpace=wrap;html=1;aspect=fixed;fillColor=none;" vertex="1" parent="1">
          <mxGeometry x="190" y="-85" width="80" height="80" as="geometry" />
        </mxCell>
        <mxCell id="JjXKmkML70HqsHR7HFJs-5" value="" style="whiteSpace=wrap;html=1;aspect=fixed;fillColor=none;" vertex="1" parent="1">
          <mxGeometry x="270" y="-85" width="80" height="80" as="geometry" />
        </mxCell>
        <mxCell id="JjXKmkML70HqsHR7HFJs-6" value="" style="whiteSpace=wrap;html=1;aspect=fixed;fillColor=none;" vertex="1" parent="1">
          <mxGeometry x="350" y="-85" width="80" height="80" as="geometry" />
        </mxCell>
        <mxCell id="JjXKmkML70HqsHR7HFJs-7" value="" style="whiteSpace=wrap;html=1;aspect=fixed;fillColor=none;" vertex="1" parent="1">
          <mxGeometry x="430" y="-85" width="80" height="80" as="geometry" />
        </mxCell>
        <mxCell id="JjXKmkML70HqsHR7HFJs-8" value="" style="whiteSpace=wrap;html=1;aspect=fixed;fillColor=none;" vertex="1" parent="1">
          <mxGeometry x="430" y="-165" width="80" height="80" as="geometry" />
        </mxCell>
        <mxCell id="JjXKmkML70HqsHR7HFJs-9" value="" style="whiteSpace=wrap;html=1;aspect=fixed;fillColor=none;" vertex="1" parent="1">
          <mxGeometry x="350" y="-165" width="80" height="80" as="geometry" />
        </mxCell>
        <mxCell id="JjXKmkML70HqsHR7HFJs-10" value="" style="whiteSpace=wrap;html=1;aspect=fixed;fillColor=none;" vertex="1" parent="1">
          <mxGeometry x="270" y="-165" width="80" height="80" as="geometry" />
        </mxCell>
        <mxCell id="JjXKmkML70HqsHR7HFJs-11" value="" style="whiteSpace=wrap;html=1;aspect=fixed;fillColor=none;" vertex="1" parent="1">
          <mxGeometry x="190" y="-165" width="80" height="80" as="geometry" />
        </mxCell>
        <mxCell id="JjXKmkML70HqsHR7HFJs-12" value="" style="whiteSpace=wrap;html=1;aspect=fixed;fillColor=none;" vertex="1" parent="1">
          <mxGeometry x="190" y="-245" width="80" height="80" as="geometry" />
        </mxCell>
        <mxCell id="JjXKmkML70HqsHR7HFJs-13" value="" style="whiteSpace=wrap;html=1;aspect=fixed;fillColor=none;" vertex="1" parent="1">
          <mxGeometry x="270" y="-245" width="80" height="80" as="geometry" />
        </mxCell>
        <mxCell id="JjXKmkML70HqsHR7HFJs-14" value="" style="whiteSpace=wrap;html=1;aspect=fixed;fillColor=none;" vertex="1" parent="1">
          <mxGeometry x="350" y="-245" width="80" height="80" as="geometry" />
        </mxCell>
        <mxCell id="JjXKmkML70HqsHR7HFJs-15" value="" style="whiteSpace=wrap;html=1;aspect=fixed;fillColor=none;" vertex="1" parent="1">
          <mxGeometry x="430" y="-245" width="80" height="80" as="geometry" />
        </mxCell>
        <mxCell id="JjXKmkML70HqsHR7HFJs-16" value="" style="endArrow=none;html=1;rounded=0;" edge="1" parent="1">
          <mxGeometry width="50" height="50" relative="1" as="geometry">
            <mxPoint x="510" y="-5" as="sourcePoint" />
            <mxPoint x="578" y="-108" as="targetPoint" />
          </mxGeometry>
        </mxCell>
        <mxCell id="JjXKmkML70HqsHR7HFJs-21" value="" style="endArrow=none;html=1;rounded=0;" edge="1" parent="1">
          <mxGeometry width="50" height="50" relative="1" as="geometry">
            <mxPoint x="510" y="-85" as="sourcePoint" />
            <mxPoint x="578" y="-176" as="targetPoint" />
          </mxGeometry>
        </mxCell>
        <mxCell id="JjXKmkML70HqsHR7HFJs-23" value="" style="endArrow=none;html=1;rounded=0;" edge="1" parent="1">
          <mxGeometry width="50" height="50" relative="1" as="geometry">
            <mxPoint x="510" y="-165" as="sourcePoint" />
            <mxPoint x="578" y="-244" as="targetPoint" />
          </mxGeometry>
        </mxCell>
        <mxCell id="JjXKmkML70HqsHR7HFJs-24" value="" style="endArrow=none;html=1;rounded=0;" edge="1" parent="1">
          <mxGeometry width="50" height="50" relative="1" as="geometry">
            <mxPoint x="547" y="-62" as="sourcePoint" />
            <mxPoint x="547" y="-282" as="targetPoint" />
          </mxGeometry>
        </mxCell>
        <mxCell id="JjXKmkML70HqsHR7HFJs-25" value="" style="endArrow=none;html=1;rounded=0;" edge="1" parent="1">
          <mxGeometry width="50" height="50" relative="1" as="geometry">
            <mxPoint x="510" y="-245" as="sourcePoint" />
            <mxPoint x="578" y="-313" as="targetPoint" />
          </mxGeometry>
        </mxCell>
        <mxCell id="JjXKmkML70HqsHR7HFJs-26" value="" style="endArrow=none;html=1;rounded=0;" edge="1" parent="1">
          <mxGeometry width="50" height="50" relative="1" as="geometry">
            <mxPoint x="578" y="-107" as="sourcePoint" />
            <mxPoint x="578" y="-313" as="targetPoint" />
          </mxGeometry>
        </mxCell>
        <mxCell id="JjXKmkML70HqsHR7HFJs-32" value="" style="endArrow=none;html=1;rounded=0;" edge="1" parent="1">
          <mxGeometry width="50" height="50" relative="1" as="geometry">
            <mxPoint x="190" y="-245" as="sourcePoint" />
            <mxPoint x="308" y="-313" as="targetPoint" />
          </mxGeometry>
        </mxCell>
        <mxCell id="JjXKmkML70HqsHR7HFJs-34" value="" style="endArrow=none;html=1;rounded=0;" edge="1" parent="1">
          <mxGeometry width="50" height="50" relative="1" as="geometry">
            <mxPoint x="270" y="-245" as="sourcePoint" />
            <mxPoint x="372" y="-313" as="targetPoint" />
          </mxGeometry>
        </mxCell>
        <mxCell id="JjXKmkML70HqsHR7HFJs-36" value="" style="endArrow=none;html=1;rounded=0;" edge="1" parent="1">
          <mxGeometry width="50" height="50" relative="1" as="geometry">
            <mxPoint x="350" y="-245" as="sourcePoint" />
            <mxPoint x="444" y="-313" as="targetPoint" />
          </mxGeometry>
        </mxCell>
        <mxCell id="JjXKmkML70HqsHR7HFJs-38" value="" style="endArrow=none;html=1;rounded=0;" edge="1" parent="1">
          <mxGeometry width="50" height="50" relative="1" as="geometry">
            <mxPoint x="430" y="-245" as="sourcePoint" />
            <mxPoint x="507" y="-313" as="targetPoint" />
          </mxGeometry>
        </mxCell>
        <mxCell id="JjXKmkML70HqsHR7HFJs-40" value="" style="endArrow=none;html=1;rounded=0;" edge="1" parent="1">
          <mxGeometry width="50" height="50" relative="1" as="geometry">
            <mxPoint x="258" y="-284" as="sourcePoint" />
            <mxPoint x="548" y="-282" as="targetPoint" />
          </mxGeometry>
        </mxCell>
        <mxCell id="JjXKmkML70HqsHR7HFJs-41" value="" style="endArrow=none;html=1;rounded=0;" edge="1" parent="1">
          <mxGeometry width="50" height="50" relative="1" as="geometry">
            <mxPoint x="308" y="-313" as="sourcePoint" />
            <mxPoint x="578" y="-313" as="targetPoint" />
          </mxGeometry>
        </mxCell>
        <mxCell id="JjXKmkML70HqsHR7HFJs-44" value="(0,0,0)" style="text;strokeColor=none;align=center;fillColor=none;html=1;verticalAlign=middle;whiteSpace=wrap;rounded=0;" vertex="1" parent="1">
          <mxGeometry x="200" y="-39" width="60" height="30" as="geometry" />
        </mxCell>
        <mxCell id="JjXKmkML70HqsHR7HFJs-46" value="(1,2,3)" style="text;strokeColor=none;align=center;fillColor=none;html=1;verticalAlign=middle;whiteSpace=wrap;rounded=0;" vertex="1" parent="1">
          <mxGeometry x="520" y="-340" width="60" height="30" as="geometry" />
        </mxCell>
        <mxCell id="JjXKmkML70HqsHR7HFJs-47" value="(1,0,3)" style="text;strokeColor=none;align=center;fillColor=none;html=1;verticalAlign=middle;whiteSpace=wrap;rounded=0;" vertex="1" parent="1">
          <mxGeometry x="580" y="-154" width="60" height="30" as="geometry" />
        </mxCell>
        <mxCell id="JjXKmkML70HqsHR7HFJs-48" value="(0,0,1)" style="text;strokeColor=none;align=center;fillColor=none;html=1;verticalAlign=middle;whiteSpace=wrap;rounded=0;" vertex="1" parent="1">
          <mxGeometry x="280" y="-39" width="60" height="30" as="geometry" />
        </mxCell>
        <mxCell id="JjXKmkML70HqsHR7HFJs-49" value="(0,0,2)" style="text;strokeColor=none;align=center;fillColor=none;html=1;verticalAlign=middle;whiteSpace=wrap;rounded=0;" vertex="1" parent="1">
          <mxGeometry x="360" y="-39" width="60" height="30" as="geometry" />
        </mxCell>
        <mxCell id="JjXKmkML70HqsHR7HFJs-50" value="(0,0,3)" style="text;strokeColor=none;align=center;fillColor=none;html=1;verticalAlign=middle;whiteSpace=wrap;rounded=0;" vertex="1" parent="1">
          <mxGeometry x="436" y="-39" width="60" height="30" as="geometry" />
        </mxCell>
        <mxCell id="JjXKmkML70HqsHR7HFJs-51" value="(0,1,0)" style="text;strokeColor=none;align=center;fillColor=none;html=1;verticalAlign=middle;whiteSpace=wrap;rounded=0;" vertex="1" parent="1">
          <mxGeometry x="200" y="-119" width="60" height="30" as="geometry" />
        </mxCell>
        <mxCell id="JjXKmkML70HqsHR7HFJs-52" value="(0,1,1)" style="text;strokeColor=none;align=center;fillColor=none;html=1;verticalAlign=middle;whiteSpace=wrap;rounded=0;" vertex="1" parent="1">
          <mxGeometry x="280" y="-119" width="60" height="30" as="geometry" />
        </mxCell>
        <mxCell id="JjXKmkML70HqsHR7HFJs-53" value="(0,1,2)" style="text;strokeColor=none;align=center;fillColor=none;html=1;verticalAlign=middle;whiteSpace=wrap;rounded=0;" vertex="1" parent="1">
          <mxGeometry x="360" y="-119" width="60" height="30" as="geometry" />
        </mxCell>
        <mxCell id="JjXKmkML70HqsHR7HFJs-54" value="(0,1,3)" style="text;strokeColor=none;align=center;fillColor=none;html=1;verticalAlign=middle;whiteSpace=wrap;rounded=0;" vertex="1" parent="1">
          <mxGeometry x="436" y="-119" width="60" height="30" as="geometry" />
        </mxCell>
        <mxCell id="JjXKmkML70HqsHR7HFJs-55" value="(0,2,0)" style="text;strokeColor=none;align=center;fillColor=none;html=1;verticalAlign=middle;whiteSpace=wrap;rounded=0;" vertex="1" parent="1">
          <mxGeometry x="200" y="-199" width="60" height="30" as="geometry" />
        </mxCell>
        <mxCell id="JjXKmkML70HqsHR7HFJs-56" value="(0,2,1)" style="text;strokeColor=none;align=center;fillColor=none;html=1;verticalAlign=middle;whiteSpace=wrap;rounded=0;" vertex="1" parent="1">
          <mxGeometry x="280" y="-199" width="60" height="30" as="geometry" />
        </mxCell>
        <mxCell id="JjXKmkML70HqsHR7HFJs-57" value="(0,2,2)" style="text;strokeColor=none;align=center;fillColor=none;html=1;verticalAlign=middle;whiteSpace=wrap;rounded=0;" vertex="1" parent="1">
          <mxGeometry x="360" y="-199" width="60" height="30" as="geometry" />
        </mxCell>
        <mxCell id="JjXKmkML70HqsHR7HFJs-58" value="(0,2,3)" style="text;strokeColor=none;align=center;fillColor=none;html=1;verticalAlign=middle;whiteSpace=wrap;rounded=0;" vertex="1" parent="1">
          <mxGeometry x="436" y="-199" width="60" height="30" as="geometry" />
        </mxCell>
        <mxCell id="JjXKmkML70HqsHR7HFJs-59" value="(1,2,2)" style="text;strokeColor=none;align=center;fillColor=none;html=1;verticalAlign=middle;whiteSpace=wrap;rounded=0;" vertex="1" parent="1">
          <mxGeometry x="450" y="-340" width="60" height="30" as="geometry" />
        </mxCell>
        <mxCell id="JjXKmkML70HqsHR7HFJs-60" value="(1,2,1)" style="text;strokeColor=none;align=center;fillColor=none;html=1;verticalAlign=middle;whiteSpace=wrap;rounded=0;" vertex="1" parent="1">
          <mxGeometry x="378" y="-340" width="60" height="30" as="geometry" />
        </mxCell>
        <mxCell id="JjXKmkML70HqsHR7HFJs-61" value="(1,2,0)" style="text;strokeColor=none;align=center;fillColor=none;html=1;verticalAlign=middle;whiteSpace=wrap;rounded=0;" vertex="1" parent="1">
          <mxGeometry x="309" y="-340" width="60" height="30" as="geometry" />
        </mxCell>
        <mxCell id="JjXKmkML70HqsHR7HFJs-62" value="(1,1,3)" style="text;strokeColor=none;align=center;fillColor=none;html=1;verticalAlign=middle;whiteSpace=wrap;rounded=0;" vertex="1" parent="1">
          <mxGeometry x="580" y="-224" width="60" height="30" as="geometry" />
        </mxCell>
        <mxCell id="JjXKmkML70HqsHR7HFJs-63" value="(1,2,3)" style="text;strokeColor=none;align=center;fillColor=none;html=1;verticalAlign=middle;whiteSpace=wrap;rounded=0;" vertex="1" parent="1">
          <mxGeometry x="580" y="-294" width="60" height="30" as="geometry" />
        </mxCell>
        <mxCell id="JjXKmkML70HqsHR7HFJs-64" value="1" style="text;strokeColor=none;align=center;fillColor=none;html=1;verticalAlign=middle;whiteSpace=wrap;rounded=0;" vertex="1" parent="1">
          <mxGeometry x="200" y="-69" width="60" height="30" as="geometry" />
        </mxCell>
        <mxCell id="JjXKmkML70HqsHR7HFJs-65" value="2" style="text;strokeColor=none;align=center;fillColor=none;html=1;verticalAlign=middle;whiteSpace=wrap;rounded=0;" vertex="1" parent="1">
          <mxGeometry x="280" y="-69" width="60" height="30" as="geometry" />
        </mxCell>
        <mxCell id="JjXKmkML70HqsHR7HFJs-66" value="3" style="text;strokeColor=none;align=center;fillColor=none;html=1;verticalAlign=middle;whiteSpace=wrap;rounded=0;" vertex="1" parent="1">
          <mxGeometry x="360" y="-69" width="60" height="30" as="geometry" />
        </mxCell>
        <mxCell id="JjXKmkML70HqsHR7HFJs-67" value="4" style="text;strokeColor=none;align=center;fillColor=none;html=1;verticalAlign=middle;whiteSpace=wrap;rounded=0;" vertex="1" parent="1">
          <mxGeometry x="436" y="-69" width="60" height="30" as="geometry" />
        </mxCell>
        <mxCell id="JjXKmkML70HqsHR7HFJs-68" value="5" style="text;strokeColor=none;align=center;fillColor=none;html=1;verticalAlign=middle;whiteSpace=wrap;rounded=0;" vertex="1" parent="1">
          <mxGeometry x="200" y="-154" width="60" height="30" as="geometry" />
        </mxCell>
        <mxCell id="JjXKmkML70HqsHR7HFJs-69" value="6" style="text;strokeColor=none;align=center;fillColor=none;html=1;verticalAlign=middle;whiteSpace=wrap;rounded=0;" vertex="1" parent="1">
          <mxGeometry x="280" y="-154" width="60" height="30" as="geometry" />
        </mxCell>
        <mxCell id="JjXKmkML70HqsHR7HFJs-70" value="7" style="text;strokeColor=none;align=center;fillColor=none;html=1;verticalAlign=middle;whiteSpace=wrap;rounded=0;" vertex="1" parent="1">
          <mxGeometry x="360" y="-154" width="60" height="30" as="geometry" />
        </mxCell>
        <mxCell id="JjXKmkML70HqsHR7HFJs-71" value="8" style="text;strokeColor=none;align=center;fillColor=none;html=1;verticalAlign=middle;whiteSpace=wrap;rounded=0;" vertex="1" parent="1">
          <mxGeometry x="436" y="-154" width="60" height="30" as="geometry" />
        </mxCell>
        <mxCell id="JjXKmkML70HqsHR7HFJs-72" value="9" style="text;strokeColor=none;align=center;fillColor=none;html=1;verticalAlign=middle;whiteSpace=wrap;rounded=0;" vertex="1" parent="1">
          <mxGeometry x="200" y="-229" width="60" height="30" as="geometry" />
        </mxCell>
        <mxCell id="JjXKmkML70HqsHR7HFJs-73" value="10" style="text;strokeColor=none;align=center;fillColor=none;html=1;verticalAlign=middle;whiteSpace=wrap;rounded=0;" vertex="1" parent="1">
          <mxGeometry x="280" y="-229" width="60" height="30" as="geometry" />
        </mxCell>
        <mxCell id="JjXKmkML70HqsHR7HFJs-74" value="11" style="text;strokeColor=none;align=center;fillColor=none;html=1;verticalAlign=middle;whiteSpace=wrap;rounded=0;" vertex="1" parent="1">
          <mxGeometry x="360" y="-229" width="60" height="30" as="geometry" />
        </mxCell>
        <mxCell id="JjXKmkML70HqsHR7HFJs-75" value="12" style="text;strokeColor=none;align=center;fillColor=none;html=1;verticalAlign=middle;whiteSpace=wrap;rounded=0;" vertex="1" parent="1">
          <mxGeometry x="438" y="-229" width="60" height="30" as="geometry" />
        </mxCell>
        <mxCell id="JjXKmkML70HqsHR7HFJs-76" value="16" style="text;strokeColor=none;align=center;fillColor=none;html=1;verticalAlign=middle;whiteSpace=wrap;rounded=0;" vertex="1" parent="1">
          <mxGeometry x="580" y="-180" width="60" height="30" as="geometry" />
        </mxCell>
        <mxCell id="JjXKmkML70HqsHR7HFJs-77" value="20" style="text;strokeColor=none;align=center;fillColor=none;html=1;verticalAlign=middle;whiteSpace=wrap;rounded=0;" vertex="1" parent="1">
          <mxGeometry x="580" y="-245" width="60" height="30" as="geometry" />
        </mxCell>
        <mxCell id="JjXKmkML70HqsHR7HFJs-78" value="24" style="text;strokeColor=none;align=center;fillColor=none;html=1;verticalAlign=middle;whiteSpace=wrap;rounded=0;" vertex="1" parent="1">
          <mxGeometry x="580" y="-320" width="60" height="30" as="geometry" />
        </mxCell>
      </root>
    </mxGraphModel>
  </diagram>
</mxfile>
